<svg xmlns="http://www.w3.org/2000/svg" width="48.594" height="48.656" viewBox="0 0 48.594 48.656"><path d="M3.369,12.494a3.58,3.58,0,0,1,.911-1.944l7.29-7.29q.851-.729,1.276.243L18.74,14.559a1.591,1.591,0,0,1-.3,1.883l-2.673,2.673A3.023,3.023,0,0,0,14.912,21,9.274,9.274,0,0,0,16.8,25.677,39.948,39.948,0,0,0,20.5,30.539l1.883,1.942c.568.568,1.295,1.266,2.189,2.1a36.677,36.677,0,0,0,4.4,3.281q3.067,2.036,4.83,2.035a2.645,2.645,0,0,0,1.944-.79l3.161-3.159a1.335,1.335,0,0,1,1.821-.243l10.633,6.257a.888.888,0,0,1,.486.638.776.776,0,0,1-.243.7l-7.29,7.29a3.57,3.57,0,0,1-1.942.909,14.7,14.7,0,0,1-6.715-.82,30.381,30.381,0,0,1-6.924-3.311q-3.189-2.065-5.923-4.19T18.44,39.528l-1.58-1.521q-.607-.607-1.61-1.671t-3.5-4.19A61.014,61.014,0,0,1,7.44,26.041a35.617,35.617,0,0,1-3.159-6.774A14.41,14.41,0,0,1,3.369,12.494Z" transform="translate(-3.267 -2.947)"/></svg>