<svg xmlns="http://www.w3.org/2000/svg" width="129" height="129" viewBox="0 0 129 129"><defs><style>.a{fill:#100e22;}.b{fill:#fff;}</style></defs><g transform="translate(-2372 -188)"><rect class="a" width="129" height="129" rx="20" transform="translate(2372 188)"/><g transform="translate(2308.4 155.914)"><path class="b" d="M197.113,212.688a1.17,1.17,0,0,0-1.5,1.8l7.671,6.43a1.172,1.172,0,0,0,1.632-.114l10.559-11.783a1.179,1.179,0,0,0-1.763-1.567l-9.792,10.935Z" transform="translate(-76.638 -118.794)"/><path class="b" d="M152.17,72.971c-10.233-.082-17.724-2.546-22.881-7.556a1.2,1.2,0,0,0-1.616-.033c-5.32,4.847-13.024,7.393-22.914,7.573A1.188,1.188,0,0,0,103.6,74.13v28.43a20.994,20.994,0,0,0,12.142,19l12.322,5.712a1.337,1.337,0,0,0,.49.114,1.028,1.028,0,0,0,.49-.114l12.191-5.7a21,21,0,0,0,12.077-18.981V74.146A1.142,1.142,0,0,0,152.17,72.971Zm-1.175,29.638a18.644,18.644,0,0,1-10.723,16.843l-11.7,5.467-11.832-5.484a18.645,18.645,0,0,1-10.771-16.875V75.288c9.45-.343,17.006-2.856,22.49-7.442,5.353,4.766,12.746,7.214,22.539,7.458Z" transform="translate(0 0)"/><path class="b" d="M152.825,103.833c-4.863,3.3-10.967,5.337-18.165,6.022a1.184,1.184,0,0,0-1.061,1.175v23.8a16.087,16.087,0,0,0,9.3,14.558l10.249,4.749a1.336,1.336,0,0,0,.49.114,1.029,1.029,0,0,0,.49-.114l10.135-4.733a16.1,16.1,0,0,0,9.254-14.542V111.079a1.187,1.187,0,0,0-1.077-1.175c-7.475-.636-13.464-2.611-18.3-6.071A1.154,1.154,0,0,0,152.825,103.833Zm18.377,8.323v22.7a13.766,13.766,0,0,1-7.9,12.42l-9.645,4.5-9.76-4.521h0a13.737,13.737,0,0,1-7.948-12.42V112.075a40.616,40.616,0,0,0,17.512-5.859C158.293,109.48,164.1,111.422,171.2,112.156Z" transform="translate(-25.104 -32.249)"/></g></g></svg>