<svg width="42" height="10" viewBox="0 0 42 10" fill="none" xmlns="http://www.w3.org/2000/svg">
<path d="M3.76705 2.45455V3.30682H0.375V2.45455H3.76705ZM1.36364 0.886364H2.36932V7.125C2.36932 7.40909 2.41051 7.62216 2.4929 7.7642C2.57813 7.90341 2.68608 7.99716 2.81676 8.04545C2.95028 8.09091 3.09091 8.11364 3.23864 8.11364C3.34943 8.11364 3.44034 8.10795 3.51136 8.09659C3.58239 8.08239 3.6392 8.07102 3.68182 8.0625L3.88636 8.96591C3.81818 8.99148 3.72301 9.01705 3.60085 9.04261C3.47869 9.07102 3.32386 9.08523 3.13636 9.08523C2.85227 9.08523 2.57386 9.02415 2.30114 8.90199C2.03125 8.77983 1.80682 8.59375 1.62784 8.34375C1.4517 8.09375 1.36364 7.77841 1.36364 7.39773V0.886364ZM7.20597 9.15341C6.79119 9.15341 6.41477 9.07528 6.0767 8.91903C5.73864 8.75994 5.47017 8.53125 5.27131 8.23295C5.07244 7.93182 4.97301 7.56818 4.97301 7.14205C4.97301 6.76705 5.04688 6.46307 5.1946 6.23011C5.34233 5.99432 5.53977 5.80966 5.78693 5.67614C6.03409 5.54261 6.30682 5.44318 6.60511 5.37784C6.90625 5.30966 7.20881 5.25568 7.51278 5.21591C7.91051 5.16477 8.23295 5.12642 8.48011 5.10085C8.73011 5.07244 8.91193 5.02557 9.02557 4.96023C9.14205 4.89489 9.20028 4.78125 9.20028 4.61932V4.58523C9.20028 4.16477 9.08523 3.83807 8.85511 3.60511C8.62784 3.37216 8.28267 3.25568 7.8196 3.25568C7.33949 3.25568 6.96307 3.3608 6.69034 3.57102C6.41761 3.78125 6.22585 4.00568 6.11506 4.24432L5.16051 3.90341C5.33097 3.50568 5.55824 3.19602 5.84233 2.97443C6.12926 2.75 6.44176 2.59375 6.77983 2.50568C7.12074 2.41477 7.45597 2.36932 7.78551 2.36932C7.99574 2.36932 8.23722 2.39489 8.50994 2.44602C8.78551 2.49432 9.05114 2.59517 9.30682 2.74858C9.56534 2.90199 9.77983 3.13352 9.95028 3.44318C10.1207 3.75284 10.206 4.16761 10.206 4.6875V9H9.20028V8.11364H9.14915C9.08097 8.25568 8.96733 8.40767 8.80824 8.5696C8.64915 8.73153 8.4375 8.86932 8.1733 8.98295C7.90909 9.09659 7.58665 9.15341 7.20597 9.15341ZM7.35938 8.25C7.7571 8.25 8.09233 8.17188 8.36506 8.01562C8.64063 7.85938 8.84801 7.65767 8.98722 7.41051C9.12926 7.16335 9.20028 6.90341 9.20028 6.63068V5.71023C9.15767 5.76136 9.06392 5.80824 8.91903 5.85085C8.77699 5.89062 8.61222 5.92614 8.42472 5.95739C8.24006 5.9858 8.05966 6.01136 7.88352 6.03409C7.71023 6.05398 7.5696 6.07102 7.46165 6.08523C7.20028 6.11932 6.95597 6.17472 6.72869 6.25142C6.50426 6.32528 6.32244 6.4375 6.18324 6.58807C6.04688 6.7358 5.97869 6.9375 5.97869 7.19318C5.97869 7.54261 6.10795 7.80682 6.36648 7.9858C6.62784 8.16193 6.95881 8.25 7.35938 8.25ZM16.6779 3.92045L15.7745 4.17614C15.7177 4.02557 15.6339 3.87926 15.5231 3.73722C15.4151 3.59233 15.2674 3.47301 15.0799 3.37926C14.8924 3.28551 14.6523 3.23864 14.3597 3.23864C13.9592 3.23864 13.6254 3.33097 13.3583 3.51562C13.0941 3.69744 12.962 3.92898 12.962 4.21023C12.962 4.46023 13.0529 4.65767 13.2347 4.80256C13.4165 4.94744 13.7006 5.06818 14.087 5.16477L15.0586 5.40341C15.6438 5.54545 16.0799 5.76278 16.3668 6.0554C16.6538 6.34517 16.7972 6.71875 16.7972 7.17614C16.7972 7.55114 16.6893 7.88636 16.4734 8.18182C16.2603 8.47727 15.962 8.71023 15.5785 8.88068C15.195 9.05114 14.7489 9.13636 14.2404 9.13636C13.5728 9.13636 13.0202 8.99148 12.5827 8.7017C12.1452 8.41193 11.8683 7.98864 11.7518 7.43182L12.7063 7.19318C12.7972 7.54545 12.9691 7.80966 13.2219 7.9858C13.4776 8.16193 13.8114 8.25 14.2234 8.25C14.6921 8.25 15.0643 8.15057 15.3398 7.9517C15.6183 7.75 15.7575 7.50852 15.7575 7.22727C15.7575 7 15.6779 6.80966 15.5188 6.65625C15.3597 6.5 15.1154 6.38352 14.7859 6.30682L13.695 6.05114C13.0955 5.90909 12.6552 5.68892 12.3739 5.39062C12.0955 5.08949 11.9563 4.71307 11.9563 4.26136C11.9563 3.89205 12.06 3.56534 12.2674 3.28125C12.4776 2.99716 12.7631 2.77415 13.1239 2.61222C13.4876 2.45028 13.8995 2.36932 14.3597 2.36932C15.0075 2.36932 15.516 2.51136 15.8853 2.79545C16.2575 3.07955 16.5217 3.45455 16.6779 3.92045ZM19.2486 6.61364L19.2315 5.36932H19.4361L22.2997 2.45455H23.544L20.4929 5.53977H20.4077L19.2486 6.61364ZM18.3111 9V0.272727H19.3168V9H18.3111ZM22.4702 9L19.9134 5.76136L20.6293 5.0625L23.7486 9H22.4702Z" fill="black"/>
<path d="M32.6964 4.63636C32.6964 5.58807 32.516 6.39773 32.1552 7.06534C31.7972 7.73295 31.3086 8.2429 30.6893 8.59517C30.0728 8.9446 29.3796 9.11932 28.6097 9.11932C27.8342 9.11932 27.1381 8.94318 26.5217 8.59091C25.9052 8.23864 25.418 7.72869 25.06 7.06108C24.7021 6.39347 24.5231 5.58523 24.5231 4.63636C24.5231 3.68466 24.7021 2.875 25.06 2.20739C25.418 1.53977 25.9052 1.03125 26.5217 0.681818C27.1381 0.329545 27.8342 0.153409 28.6097 0.153409C29.3796 0.153409 30.0728 0.329545 30.6893 0.681818C31.3086 1.03125 31.7972 1.53977 32.1552 2.20739C32.516 2.875 32.6964 3.68466 32.6964 4.63636ZM30.8256 4.63636C30.8256 4.01989 30.7333 3.5 30.5487 3.0767C30.3668 2.65341 30.1097 2.33239 29.7773 2.11364C29.445 1.89489 29.0558 1.78551 28.6097 1.78551C28.1637 1.78551 27.7745 1.89489 27.4421 2.11364C27.1097 2.33239 26.8512 2.65341 26.6665 3.0767C26.4847 3.5 26.3938 4.01989 26.3938 4.63636C26.3938 5.25284 26.4847 5.77273 26.6665 6.19602C26.8512 6.61932 27.1097 6.94034 27.4421 7.15909C27.7745 7.37784 28.1637 7.48722 28.6097 7.48722C29.0558 7.48722 29.445 7.37784 29.7773 7.15909C30.1097 6.94034 30.3668 6.61932 30.5487 6.19602C30.7333 5.77273 30.8256 5.25284 30.8256 4.63636ZM34.0632 9V0.272727H35.9084V4.12074H36.0234L39.1641 0.272727H41.3757L38.1371 4.1804L41.4141 9H39.2067L36.8161 5.41193L35.9084 6.51989V9H34.0632Z" fill="#165DF5"/>
</svg>
