<svg xmlns="http://www.w3.org/2000/svg" width="129" height="129" viewBox="0 0 129 129"><defs><style>.a{fill:#100e22;}.b,.c{fill:#fff;}.b{stroke:#100e22;}</style></defs><g transform="translate(-1963 -339)"><g transform="translate(-173 3)"><g transform="translate(-236 148)"><rect class="a" width="129" height="129" rx="20" transform="translate(2372 188)"/></g></g><g transform="translate(1913.864 289.861)"><g transform="translate(82.136 82.139)"><path class="b" d="M144.112,112.238l-4.164-6.092.561-7.358a1.866,1.866,0,0,0-1.051-1.82L132.8,93.773l-3.2-6.654a1.865,1.865,0,0,0-1.82-1.051l-7.358.56-6.092-4.165a1.865,1.865,0,0,0-2.1,0l-6.092,4.165-7.358-.56a1.866,1.866,0,0,0-1.822,1.051L93.77,93.773l-6.655,3.194a1.866,1.866,0,0,0-1.051,1.82l.561,7.359-4.164,6.092a1.865,1.865,0,0,0,0,2.1l4.164,6.091-.56,7.358a1.864,1.864,0,0,0,1.051,1.82l6.653,3.194,3.194,6.653a1.865,1.865,0,0,0,1.82,1.051l7.36-.56,6.092,4.165a1.869,1.869,0,0,0,2.1,0l6.09-4.165,7.36.56a1.871,1.871,0,0,0,1.82-1.05l3.194-6.655,6.653-3.194a1.861,1.861,0,0,0,1.051-1.82l-.561-7.359,4.166-6.091A1.868,1.868,0,0,0,144.112,112.238ZM136.5,118.87a1.856,1.856,0,0,0-.319,1.193l.514,6.74-6.1,2.927a1.866,1.866,0,0,0-.873.871l-2.926,6.1-6.74-.514a1.86,1.86,0,0,0-1.193.321l-5.583,3.814-5.581-3.814a1.856,1.856,0,0,0-1.051-.326c-.047,0-.093,0-.14.005l-6.741.514-2.927-6.1a1.85,1.85,0,0,0-.873-.873l-6.094-2.926.513-6.742a1.859,1.859,0,0,0-.319-1.193l-3.816-5.581,3.816-5.582a1.866,1.866,0,0,0,.319-1.192l-.513-6.742,6.094-2.926a1.857,1.857,0,0,0,.873-.873l2.927-6.1,6.741.514a1.86,1.86,0,0,0,1.192-.321l5.581-3.815,5.583,3.815a1.857,1.857,0,0,0,1.193.321l6.74-.514,2.926,6.1a1.868,1.868,0,0,0,.873.873l6.1,2.926-.514,6.742a1.855,1.855,0,0,0,.319,1.193l3.816,5.581Z" transform="translate(-82.136 -82.139)"/></g></g><path class="c" d="M197.113,212.688a1.17,1.17,0,0,0-1.5,1.8l7.671,6.43a1.172,1.172,0,0,0,1.632-.114l10.559-11.783a1.179,1.179,0,0,0-1.763-1.567l-9.792,10.935Z" transform="translate(1822.02 189.03)"/></g></svg>