<svg width="129" height="129" viewBox="0 0 129 129" fill="none" xmlns="http://www.w3.org/2000/svg">
<g clip-path="url(#clip0_9_29)">
<path d="M109 0H20C8.9543 0 0 8.9543 0 20V109C0 120.046 8.9543 129 20 129H109C120.046 129 129 120.046 129 109V20C129 8.9543 120.046 0 109 0Z" fill="#100E22"/>
<path d="M64 89.5417C60.5986 89.5417 57.4017 88.8958 54.4094 87.6042C51.417 86.3125 48.8121 84.558 46.5948 82.3406C44.3774 80.1233 42.6337 77.5184 41.3635 74.526C40.0934 71.5337 39.4583 68.3153 39.4583 64.8708C39.4583 61.4694 40.0934 58.2833 41.3635 55.3125C42.6337 52.3417 44.3774 49.7476 46.5948 47.5302C48.8121 45.3129 51.417 43.5799 54.4094 42.3313C57.4017 41.0826 60.5986 40.4583 64 40.4583C67.4014 40.4583 70.5982 41.0826 73.5906 42.3313C76.583 43.5799 79.1878 45.3129 81.4052 47.5302C83.6225 49.7476 85.3663 52.3417 86.6364 55.3125C87.9066 58.2833 88.5416 61.4694 88.5416 64.8708C88.5416 68.3153 87.9066 71.5337 86.6364 74.526C85.3663 77.5184 83.6225 80.1233 81.4052 82.3406C79.1878 84.558 76.583 86.3125 73.5906 87.6042C70.5982 88.8958 67.4014 89.5417 64 89.5417ZM64 86.7646C65.593 84.9993 66.9062 83.1049 67.9396 81.0813C68.9729 79.0576 69.834 76.6896 70.5229 73.9771H57.5416C58.1875 76.6465 59.0271 79.0146 60.0604 81.0813C61.0937 83.1479 62.4069 85.0424 64 86.7646ZM59.9312 86.1833C58.6826 84.6333 57.5955 82.8142 56.6698 80.726C55.7441 78.6378 55.0229 76.3882 54.5062 73.9771H44.2375C45.8736 77.3354 47.9403 79.9726 50.4375 81.8885C52.9347 83.8045 56.0993 85.2361 59.9312 86.1833V86.1833ZM68.1333 86.1833C71.5347 85.4083 74.6024 83.966 77.3364 81.8563C80.0705 79.7465 82.2125 77.1201 83.7625 73.9771H73.5583C72.9125 76.3882 72.1375 78.6271 71.2333 80.6938C70.3291 82.7604 69.2958 84.5903 68.1333 86.1833V86.1833ZM43.2687 71.0708H53.925C53.7958 69.8653 53.7097 68.7674 53.6666 67.7771C53.6236 66.7868 53.6021 65.8181 53.6021 64.8708C53.6021 63.8375 53.6236 62.858 53.6666 61.9323C53.7097 61.0066 53.8173 60.0056 53.9896 58.9292H43.2687C42.9673 59.9194 42.7413 60.8774 42.5906 61.8031C42.4399 62.7288 42.3646 63.7514 42.3646 64.8708C42.3646 66.0333 42.4399 67.099 42.5906 68.0677C42.7413 69.0365 42.9673 70.0375 43.2687 71.0708ZM56.9604 71.0708H71.1041C71.2764 69.7361 71.3948 68.6167 71.4594 67.7125C71.5239 66.8083 71.5562 65.8611 71.5562 64.8708C71.5562 63.9667 71.5239 63.0733 71.4594 62.1906C71.3948 61.308 71.2764 60.2208 71.1041 58.9292H56.9604C56.7882 60.2208 56.6698 61.308 56.6052 62.1906C56.5406 63.0733 56.5083 63.9667 56.5083 64.8708C56.5083 65.8611 56.5406 66.8083 56.6052 67.7125C56.6698 68.6167 56.7882 69.7361 56.9604 71.0708V71.0708ZM74.0104 71.0708H84.7312C85.0326 70.0375 85.2587 69.0365 85.4094 68.0677C85.56 67.099 85.6354 66.0333 85.6354 64.8708C85.6354 63.7514 85.56 62.7288 85.4094 61.8031C85.2587 60.8774 85.0326 59.9194 84.7312 58.9292H74.075C74.2041 60.35 74.301 61.5017 74.3656 62.3844C74.4302 63.267 74.4625 64.0958 74.4625 64.8708C74.4625 65.8611 74.4302 66.8191 74.3656 67.7448C74.301 68.6705 74.1826 69.7792 74.0104 71.0708ZM73.4937 55.9583H83.7625C82.2555 52.6861 80.1566 50.0059 77.4656 47.9177C74.7746 45.8295 71.6423 44.441 68.0687 43.7521C69.3173 45.3882 70.383 47.2181 71.2656 49.2417C72.1482 51.2653 72.891 53.5042 73.4937 55.9583ZM57.5416 55.9583H70.5875C70.0278 53.5472 69.1774 51.2653 68.0364 49.1125C66.8955 46.9597 65.55 45.0438 64 43.3646C62.5361 44.6993 61.2982 46.3569 60.2864 48.3375C59.2746 50.3181 58.3597 52.8583 57.5416 55.9583ZM44.2375 55.9583H54.5062C55.066 53.5903 55.7871 51.4052 56.6698 49.4031C57.5524 47.401 58.618 45.5389 59.8666 43.8167C56.293 44.5056 53.1823 45.8726 50.5344 47.9177C47.8864 49.9628 45.7875 52.6431 44.2375 55.9583Z" fill="white"/>
</g>
<defs>
<clipPath id="clip0_9_29">
<rect width="129" height="129" fill="white"/>
</clipPath>
</defs>
</svg>
