<svg xmlns="http://www.w3.org/2000/svg" width="129" height="129" viewBox="0 0 129 129"><defs><style>.a{fill:#100e22;}.b{fill:none;stroke:#fff;stroke-linecap:round;stroke-linejoin:round;stroke-width:3px;}</style></defs><g transform="translate(-2372 -339)"><g transform="translate(0 151)"><rect class="a" width="129" height="129" rx="20" transform="translate(2372 188)"/></g><g transform="translate(2400.5 367.5)"><path class="b" d="M56.377,43.079v-6.86A13.719,13.719,0,0,0,42.658,22.5H15.219A13.719,13.719,0,0,0,1.5,36.219v6.86" transform="translate(0 23.721)"/><path class="b" d="M34.938,18.219A13.719,13.719,0,1,1,21.219,4.5,13.719,13.719,0,0,1,34.938,18.219Z" transform="translate(7.916)"/><path class="b" d="M40.289,42.828v-6.86A13.719,13.719,0,0,0,30,22.7" transform="translate(30.355 23.972)"/><path class="b" d="M24,4.7a13.719,13.719,0,0,1,0,26.581" transform="translate(22.491 0.251)"/></g></g></svg>