<svg xmlns="http://www.w3.org/2000/svg" width="129" height="129" viewBox="0 0 129 129"><defs><style>.a{fill:#100e22;}.b{fill:#fff;}</style></defs><g transform="translate(-250 -218)"><g transform="translate(-1886 -118)"><g transform="translate(-236 148)"><rect class="a" width="129" height="129" rx="20" transform="translate(2372 188)"/></g></g><g transform="translate(217.8 185.8)"><path class="b" d="M153.635,89.471A12.135,12.135,0,1,0,141.5,77.335,12.156,12.156,0,0,0,153.635,89.471Zm0-21.945a9.793,9.793,0,1,1-9.793,9.793A9.8,9.8,0,0,1,153.635,67.526Z" transform="translate(-63.888)"/><path class="b" d="M94.221,251.362H78.978v-9.175a1.171,1.171,0,1,0-2.342,0v9.175H67.543A22.1,22.1,0,0,1,89.6,230.442h.293a22.177,22.177,0,0,1,3.6.293,1.171,1.171,0,1,0,.39-2.31,24.812,24.812,0,0,0-3.969-.325h-.293a24.382,24.382,0,0,0-17.081,6.93A23.978,23.978,0,0,0,65.2,251.9v.634a1.166,1.166,0,0,0,1.171,1.171H94.237a1.166,1.166,0,0,0,1.171-1.171A1.191,1.191,0,0,0,94.221,251.362Z" transform="translate(0 -136.401)"/><path class="b" d="M285.732,213.771c-6.084-.049-10.525-1.513-13.567-4.457a1.2,1.2,0,0,0-1.61-.033c-3.14,2.863-7.711,4.376-13.6,4.474a1.184,1.184,0,0,0-1.155,1.171v17.243a13.2,13.2,0,0,0,7.629,11.94l7.467,3.465a1.332,1.332,0,0,0,.488.114,1.025,1.025,0,0,0,.488-.114l7.4-3.449a13.19,13.19,0,0,0,7.6-11.924v-17.26A1.139,1.139,0,0,0,285.732,213.771ZM284.544,232.2a10.881,10.881,0,0,1-6.247,9.809l-6.9,3.221-6.979-3.237a10.833,10.833,0,0,1-6.263-9.809v-16.1c5.466-.26,9.891-1.724,13.177-4.36,3.221,2.717,7.564,4.164,13.225,4.376v16.1Z" transform="translate(-159.594 -120.396)"/><path class="b" d="M304.707,294.017a1.166,1.166,0,1,0-1.5,1.789l5.856,4.913a1.169,1.169,0,0,0,1.627-.114l8.052-9a1.175,1.175,0,0,0-1.757-1.562l-7.3,8.15Z" transform="translate(-198.936 -187.937)"/></g></g></svg>